<mxfile host="drawio-plugin" modified="2024-05-16T20:52:59.711Z" agent="Mozilla/5.0 (Windows NT 10.0; Win64; x64) AppleWebKit/537.36 (KHTML, like Gecko) Chrome/122.0.0.0 Safari/537.36" etag="hpAeu3hpqrLzr3TUjdLm" version="22.1.22" type="embed">
  <diagram id="lcPPTLjZXhJ7gWwHTS3b" name="Page-1">
    <mxGraphModel dx="681" dy="477" grid="1" gridSize="10" guides="1" tooltips="1" connect="1" arrows="1" fold="1" page="1" pageScale="1" pageWidth="850" pageHeight="1100" math="0" shadow="0">
      <root>
        <mxCell id="0" />
        <mxCell id="1" parent="0" />
        <mxCell id="2" value="JPA-/&lt;b style=&quot;border-color: var(--border-color);&quot;&gt;CRUD-&lt;/b&gt;&lt;br&gt;Interfaces" style="shape=umlFrame;whiteSpace=wrap;html=1;pointerEvents=0;width=85;height=30;" parent="1" vertex="1">
          <mxGeometry x="275" y="170" width="425" height="200" as="geometry" />
        </mxCell>
        <mxCell id="3" value="&lt;p style=&quot;margin:0px;margin-top:4px;text-align:center;&quot;&gt;&lt;i&gt;&amp;lt;&amp;lt;Interface&amp;gt;&amp;gt;&lt;/i&gt;&lt;br&gt;&lt;b&gt;Snacks-Repository extends CRUD-Interface&lt;/b&gt;&lt;/p&gt;&lt;p style=&quot;margin:0px;margin-left:4px;&quot;&gt;&lt;br&gt;&lt;/p&gt;&lt;p style=&quot;margin:0px;margin-left:4px;&quot;&gt;+ findAll(): Snacks&lt;br&gt;&lt;/p&gt;" style="verticalAlign=top;align=left;overflow=fill;fontSize=12;fontFamily=Helvetica;html=1;whiteSpace=wrap;" parent="1" vertex="1">
          <mxGeometry x="275" y="200" width="165" height="80" as="geometry" />
        </mxCell>
        <mxCell id="4" value="«interface»&lt;br&gt;&lt;b&gt;User-Repository&lt;br&gt;&lt;br&gt;+ findAll(): UserEntry&lt;br&gt;&lt;/b&gt;&lt;b style=&quot;border-color: var(--border-color);&quot;&gt;+ findByEmail(): UserEntry&lt;/b&gt;&lt;b&gt;&lt;br&gt;&lt;/b&gt;" style="html=1;whiteSpace=wrap;" parent="1" vertex="1">
          <mxGeometry x="275" y="280" width="165" height="70" as="geometry" />
        </mxCell>
        <mxCell id="6" value="«interface»&lt;br&gt;&lt;b&gt;Reservation-Repo&lt;br&gt;&lt;br&gt;&lt;/b&gt;" style="html=1;whiteSpace=wrap;" parent="1" vertex="1">
          <mxGeometry x="440" y="200" width="110" height="50" as="geometry" />
        </mxCell>
        <mxCell id="8" value="«interface»&lt;br&gt;&lt;b&gt;Film-Repo&lt;br&gt;&lt;/b&gt;&lt;br&gt;+ findAll: Film" style="html=1;whiteSpace=wrap;" parent="1" vertex="1">
          <mxGeometry x="440" y="250" width="110" height="60" as="geometry" />
        </mxCell>
        <mxCell id="9" value="«interface»&lt;br&gt;&lt;b&gt;Event-Repo&lt;br&gt;&lt;/b&gt;&lt;br&gt;+ findAll: Film" style="html=1;whiteSpace=wrap;" vertex="1" parent="1">
          <mxGeometry x="440" y="310" width="110" height="60" as="geometry" />
        </mxCell>
        <mxCell id="13" value="" style="edgeStyle=orthogonalEdgeStyle;rounded=0;orthogonalLoop=1;jettySize=auto;html=1;" edge="1" parent="1" source="10" target="12">
          <mxGeometry relative="1" as="geometry" />
        </mxCell>
        <mxCell id="10" value="«interface»&lt;br&gt;&lt;b&gt;Film-Repo&lt;br&gt;&lt;/b&gt;&lt;br&gt;+ findAll: Film" style="html=1;whiteSpace=wrap;" vertex="1" parent="1">
          <mxGeometry x="590" y="230" width="110" height="60" as="geometry" />
        </mxCell>
        <mxCell id="11" value="«interface»&lt;br&gt;&lt;b&gt;Film-Repo&lt;br&gt;&lt;/b&gt;&lt;br&gt;+ findAll: Film" style="html=1;whiteSpace=wrap;" vertex="1" parent="1">
          <mxGeometry x="590" y="170" width="110" height="60" as="geometry" />
        </mxCell>
        <mxCell id="12" value="«interface»&lt;br&gt;&lt;b&gt;Film-Repo&lt;br&gt;&lt;/b&gt;&lt;br&gt;+ findAll: Film" style="html=1;whiteSpace=wrap;" vertex="1" parent="1">
          <mxGeometry x="590" y="290" width="110" height="60" as="geometry" />
        </mxCell>
      </root>
    </mxGraphModel>
  </diagram>
</mxfile>
